<svg width="28" height="28" viewBox="0 0 28 28" fill="none" xmlns="http://www.w3.org/2000/svg">
<path d="M12.9221 7.40693V1.7943C12.9221 1.19752 13.3981 0.700195 14.0001 0.700195C14.5391 0.700195 14.9958 1.11808 15.0682 1.64741L15.0781 1.7943V7.40693L21.77 7.40735C25.102 7.40735 27.8395 10.1359 27.9932 13.5388L28 13.8407V20.8957C28 24.3225 25.3577 27.1353 22.0752 27.2932L21.784 27.3002H6.216C2.884 27.3002 0.159726 24.5853 0.0067729 21.1699L0 20.8668V13.8263C0 10.3995 2.62907 7.57309 5.91079 7.41438L6.202 7.40735H12.922V16.3707L10.682 14.0576C10.262 13.6239 9.576 13.6239 9.156 14.0576C8.946 14.2744 8.848 14.5636 8.848 14.8527C8.848 15.0725 8.91072 15.3015 9.04333 15.4953L9.156 15.6334L13.23 19.8548C13.426 20.0717 13.706 20.1873 14 20.1873C14.2333 20.1873 14.4667 20.107 14.6514 19.9548L14.756 19.8548L18.83 15.6334C19.25 15.1997 19.25 14.4913 18.83 14.0576C18.4482 13.6633 17.8465 13.6275 17.4247 13.95L17.304 14.0576L15.078 16.3707V7.40735L12.9221 7.40693Z" fill="#6476B3"/>
</svg>
