<svg width="34" height="34" viewBox="0 0 34 34" fill="none" xmlns="http://www.w3.org/2000/svg">
<g opacity="0.3">
<mask id="mask0_657_18105" style="mask-type:luminance" maskUnits="userSpaceOnUse" x="3" y="3" width="28" height="28">
<path fill-rule="evenodd" clip-rule="evenodd" d="M3.16272 3.1709H30.6362V30.7258H3.16272V3.1709Z" fill="white"/>
</mask>
<g mask="url(#mask0_657_18105)">
<path fill-rule="evenodd" clip-rule="evenodd" d="M10.9436 5.24229C7.47245 5.24229 5.22808 7.62991 5.22808 11.3239V22.5729C5.22808 26.2683 7.47245 28.6545 10.9436 28.6545H22.8484C26.3251 28.6545 28.5708 26.2683 28.5708 22.5729V11.3239C28.5736 9.44169 28.0008 7.87019 26.9158 6.78064C25.9134 5.77395 24.5103 5.24229 22.8553 5.24229H10.9436ZM22.8484 30.7259H10.9436C6.28968 30.7259 3.16272 27.449 3.16272 22.5729V11.3239C3.16272 6.44784 6.28968 3.1709 10.9436 3.1709H22.8553C25.0694 3.1709 26.9791 3.91246 28.3767 5.31686C29.8376 6.7834 30.639 8.91693 30.6362 11.3253V22.5729C30.6362 27.449 27.5065 30.7259 22.8484 30.7259V30.7259Z" fill="black"/>
</g>
<path fill-rule="evenodd" clip-rule="evenodd" d="M12.6028 11.0274C11.7712 11.0274 11.0951 11.7055 11.0951 12.5409C11.0951 13.375 11.7712 14.0531 12.6042 14.0531C13.4358 14.0531 14.1133 13.375 14.1133 12.5423C14.1119 11.7069 13.4345 11.0288 12.6028 11.0274M12.6042 16.1244C10.6324 16.1244 9.02972 14.517 9.02972 12.5409C9.02972 10.5635 10.6324 8.95605 12.6042 8.95605C14.5745 8.95744 16.1773 10.5648 16.1786 12.5396V12.5409C16.1786 14.517 14.5759 16.1244 12.6042 16.1244" fill="black"/>
<path fill-rule="evenodd" clip-rule="evenodd" d="M5.5704 28.1808C5.39966 28.1808 5.22617 28.138 5.06645 28.0482C4.56801 27.7679 4.39314 27.1368 4.67128 26.6383C4.75389 26.4891 6.72976 22.9857 8.9039 21.1905C10.6278 19.7682 12.4839 20.5498 13.9792 21.1809C14.859 21.5523 15.6907 21.9031 16.4893 21.9031C17.2218 21.9031 18.1402 20.605 18.9526 19.4602C20.0803 17.8639 21.3608 16.0576 23.2362 16.0576C26.224 16.0576 28.803 18.7311 30.1895 20.1673L30.3493 20.333C30.7458 20.7431 30.7362 21.399 30.3272 21.7981C29.921 22.1972 29.267 22.1876 28.8677 21.776L28.7052 21.6076C27.5321 20.391 25.3483 18.129 23.2362 18.129C22.4265 18.129 21.4765 19.4726 20.6352 20.6589C19.4813 22.2884 18.2875 23.9745 16.4893 23.9745C15.2735 23.9745 14.1596 23.505 13.1778 23.0893C11.6164 22.4292 10.9087 22.2179 10.2161 22.7896C8.33799 24.3418 6.49018 27.6201 6.47228 27.6519C6.28364 27.9902 5.93253 28.1808 5.5704 28.1808" fill="black"/>
</g>
</svg>
